<?xml version="1.0" encoding="utf-8"?>
<!-- Generator: Adobe Illustrator 15.1.0, SVG Export Plug-In . SVG Version: 6.00 Build 0)  -->
<!DOCTYPE svg PUBLIC "-//W3C//DTD SVG 1.1//EN" "http://www.w3.org/Graphics/SVG/1.1/DTD/svg11.dtd">
<svg version="1.1" id="Layer_1" xmlns="http://www.w3.org/2000/svg" xmlns:xlink="http://www.w3.org/1999/xlink" x="0px" y="0px"
	 width="100px" height="63.895px" viewBox="0 0 100 63.895" enable-background="new 0 0 100 63.895" xml:space="preserve">
<path d="M68.124,27.463c7.522,0,13.55-6.071,13.55-13.593S75.646,0.277,68.124,0.277c-7.521,0-13.593,6.072-13.593,13.594
	S60.603,27.463,68.124,27.463z M31.875,27.463c7.521,0,13.549-6.071,13.549-13.593S39.397,0.277,31.875,0.277
	c-7.521,0-13.594,6.072-13.594,13.594S24.354,27.463,31.875,27.463z M31.875,36.526c-10.558,0-31.718,5.301-31.718,15.859v11.327
	h63.437V52.385C63.594,41.827,42.433,36.526,31.875,36.526z M68.124,36.526c-1.314,0-2.809,0.091-4.394,0.226
	c5.255,3.805,8.926,8.927,8.926,15.634v11.327h27.187V52.385C99.843,41.827,78.683,36.526,68.124,36.526z"/>
</svg>
