<?xml version="1.0" encoding="utf-8"?>

<!DOCTYPE svg PUBLIC "-//W3C//DTD SVG 1.1//EN" "http://www.w3.org/Graphics/SVG/1.1/DTD/svg11.dtd">

<svg height="10" width="10" xmlns="http://www.w3.org/2000/svg" xmlns:xlink="http://www.w3.org/1999/xlink" version="1.1">
	<defs>
		<pattern id="stream" patternUnits="userSpaceOnUse" width="400" height="270">
			<image xlink:href="/Images/urban-people.jpg" x="0" y="0" width="400" height="270">
			</image>
		</pattern>
	</defs>
	<symbol id="slanted" height="270" width="400">
		<polygon fill=""  points="400,0.083 400,270 0,270 0,95.152"/>
	</symbol>
	<symbol version="1.1" id="people-icon" x="0px" y="0px" viewBox="0 0 100 64">
		<path d="M68.124,27.463c7.522,0,13.55-6.071,13.55-13.593S75.646,0.277,68.124,0.277c-7.521,0-13.593,6.072-13.593,13.594
			S60.603,27.463,68.124,27.463z M31.875,27.463c7.521,0,13.549-6.071,13.549-13.593S39.397,0.277,31.875,0.277
			c-7.521,0-13.594,6.072-13.594,13.594S24.354,27.463,31.875,27.463z M31.875,36.526c-10.558,0-31.718,5.301-31.718,15.859v11.327
			h63.437V52.385C63.594,41.827,42.433,36.526,31.875,36.526z M68.124,36.526c-1.314,0-2.809,0.091-4.394,0.226
			c5.255,3.805,8.926,8.927,8.926,15.634v11.327h27.187V52.385C99.843,41.827,78.683,36.526,68.124,36.526z"/>
	</symbol>
	<symbol id="person" viewBox="0 0 24 24" xmlns="http://www.w3.org/2000/svg">
	    <path d="M12 12c2.21 0 4-1.79 4-4s-1.79-4-4-4-4 1.79-4 4 1.79 4 4 4zm0 2c-2.67 0-8 1.34-8 4v2h16v-2c0-2.66-5.33-4-8-4z"/>
	    <path d="M0 0h24v24H0z" fill="none"/>
	</symbol>
	<symbol id="red-light" viewBox="0 0 50 50" >
		<path  d="M49.133,24.976c0,13.257-10.739,24-23.998,24s-24.002-10.743-24.002-24c0-13.255,10.744-24,24.002-24
			S49.133,11.721,49.133,24.976z"/>
		<path  d="M39.137,25.177c0,7.842-6.355,14.196-14.202,14.196c-7.843,0-14.203-6.354-14.203-14.196
			c0-7.845,6.36-14.204,14.203-14.204C32.781,10.973,39.137,17.332,39.137,25.177z"/>
	</symbol>
	<symbol id="grey-light" viewBox="0 0 50 50">
		<path fill="#BFBFBF" d="M49.133,24.976c0,13.257-10.739,24-23.998,24s-24.002-10.743-24.002-24c0-13.255,10.744-24,24.002-24
			S49.133,11.721,49.133,24.976z"/>
		<path fill="#DCDCDC" d="M39.137,25.177c0,7.842-6.355,14.196-14.202,14.196c-7.843,0-14.203-6.354-14.203-14.196
			c0-7.845,6.36-14.204,14.203-14.204C32.781,10.973,39.137,17.332,39.137,25.177z"/>
	</symbol>
	<symbol id="play-icon" viewBox="-1 -1 50 50">
		<path d="M5.994,1.083v45.834L42.006,24L5.994,1.083z"/>
		<path fill="none" d="M0,0h48v48H0V0z"/>
	</symbol>
	<symbol id="arrow-forward" fill="" viewBox="0 0 24 24">
	    <path d="M0 0h24v24H0z" fill="none"/>
	    <path d="M12 4l-1.41 1.41L16.17 11H4v2h12.17l-5.58 5.59L12 20l8-8z"/>
	</symbol>
	<symbol id="close" viewBox="0 0 24 24">
	    <path d="M19 6.41L17.59 5 12 10.59 6.41 5 5 6.41 10.59 12 5 17.59 6.41 19 12 13.41 17.59 19 19 17.59 13.41 12z"/>
	    <path d="M0 0h24v24H0z" fill="none"/>
	</symbol>
	<symbol id="add" viewBox="0 0 24 24">
	    <path d="M19 13h-6v6h-2v-6H5v-2h6V5h2v6h6v2z"/>
	    <path d="M0 0h24v24H0z" fill="none"/>
	</symbol>
	<symbol id="checkmark" viewBox="0 0 48 48">
		<polyline fill="none"  stroke-width="5.7241" stroke-miterlimit="10" points="3,27.254 15.164,39.419 44.5,10.082"/>
	</symbol>
	<symbol id="views-icon" viewBox="0 0 24 24">
	    <path d="M12 4.5C7 4.5 2.73 7.61 1 12c1.73 4.39 6 7.5 11 7.5s9.27-3.11 11-7.5c-1.73-4.39-6-7.5-11-7.5zM12 17c-2.76 0-5-2.24-5-5s2.24-5 5-5 5 2.24 5 5-2.24 5-5 5zm0-8c-1.66 0-3 1.34-3 3s1.34 3 3 3 3-1.34 3-3-1.34-3-3-3z"/>
	</symbol>
</svg>
